<?xml version="1.0" encoding="UTF-8" standalone="no"?>
<svg
   id="emoji"
   viewBox="0 0 72 72"
   version="1.1"
   sodipodi:docname="1F9EA.svg"
   inkscape:version="1.2.2 (732a01da63, 2022-12-09, custom)"
   xmlns:inkscape="http://www.inkscape.org/namespaces/inkscape"
   xmlns:sodipodi="http://sodipodi.sourceforge.net/DTD/sodipodi-0.dtd"
   xmlns="http://www.w3.org/2000/svg"
   xmlns:svg="http://www.w3.org/2000/svg">
  <defs
     id="defs35" />
  <sodipodi:namedview
     id="namedview33"
     pagecolor="#ffffff"
     bordercolor="#666666"
     borderopacity="1.0"
     inkscape:showpageshadow="2"
     inkscape:pageopacity="0.0"
     inkscape:pagecheckerboard="0"
     inkscape:deskcolor="#d1d1d1"
     showgrid="false"
     inkscape:zoom="6.0763889"
     inkscape:cx="21.888"
     inkscape:cy="45.668571"
     inkscape:window-width="1920"
     inkscape:window-height="1016"
     inkscape:window-x="324"
     inkscape:window-y="1467"
     inkscape:window-maximized="1"
     inkscape:current-layer="emoji" />
  <g
     id="g326"
     transform="rotate(36.502981,35.543301,35.758419)">
    <g
       id="color">
      <path
         fill="#5c9e31"
         d="M 42.06,29.84 V 52.92 A 6.506,6.506 0 0 1 35.55,59.43 6.3082,6.3082 0 0 1 33.7746,59.1814 6.5,6.5 0 0 1 29.04,52.92 V 29.84 h 0.7811 l -0.5444,1.0534 a 14.0534,14.0534 0 0 0 6.2733,1.3141 15.9069,15.9069 0 0 0 2.9589,-0.26 c 0.071,-0.0119 0.1539,-0.0236 0.2249,-0.0355 a 11.5513,11.5513 0 0 0 3.0891,-1.0178"
         id="path18" />
      <path
         fill="#b1cc33"
         d="m 28.2936,30.8938 a 14.0534,14.0534 0 0 0 6.2729,1.3137 15.9069,15.9069 0 0 0 2.9589,-0.26 V 52.92 A 6.5,6.5 0 0 1 32.7911,59.181 6.5,6.5 0 0 1 28.0569,52.92 V 29.84"
         id="path20" />
    </g>
    <g
       id="line">
      <path
         fill="none"
         stroke="#000000"
         stroke-linecap="round"
         stroke-linejoin="round"
         stroke-width="2"
         d="m 42.06,16.9372 v 35.43 A 6.7993,6.7993 0 0 1 35.55,59.43 6.7992,6.7992 0 0 1 29.04,52.3672 V 17.2855"
         id="path23" />
      <ellipse
         cx="35.543301"
         cy="15.2238"
         rx="7.3933001"
         ry="3.1370001"
         fill="none"
         stroke="#000000"
         stroke-miterlimit="10"
         stroke-width="2"
         id="ellipse25" />
      <path
         fill="none"
         stroke="#000000"
         stroke-linecap="round"
         stroke-linejoin="round"
         stroke-width="2"
         d="M 42.06,29.84 V 52.92 A 6.506,6.506 0 0 1 35.55,59.43 6.3082,6.3082 0 0 1 33.7746,59.1814 6.5,6.5 0 0 1 29.04,52.92 V 29.84"
         id="path27" />
      <path
         fill="none"
         stroke="#000000"
         stroke-linecap="round"
         stroke-linejoin="round"
         stroke-width="2"
         d="m 29.277,30.8938 a 14.0534,14.0534 0 0 0 6.273,1.3137 15.9069,15.9069 0 0 0 2.9589,-0.26 c 0.071,-0.0119 0.1539,-0.0236 0.2249,-0.0355 a 11.5513,11.5513 0 0 0 3.0891,-1.0178"
         id="path29" />
    </g>
  </g>
</svg>
