<?xml version="1.0" encoding="UTF-8" standalone="no"?>
<svg
   id="emoji"
   viewBox="0 0 72 72"
   version="1.1"
   sodipodi:docname="23E9.svg"
   inkscape:version="1.2.2 (732a01da63, 2022-12-09, custom)"
   xmlns:inkscape="http://www.inkscape.org/namespaces/inkscape"
   xmlns:sodipodi="http://sodipodi.sourceforge.net/DTD/sodipodi-0.dtd"
   xmlns="http://www.w3.org/2000/svg"
   xmlns:svg="http://www.w3.org/2000/svg">
  <defs
     id="defs7702" />
  <sodipodi:namedview
     id="namedview7700"
     pagecolor="#ffffff"
     bordercolor="#666666"
     borderopacity="1.0"
     inkscape:showpageshadow="2"
     inkscape:pageopacity="0.0"
     inkscape:pagecheckerboard="0"
     inkscape:deskcolor="#d1d1d1"
     showgrid="false"
     inkscape:zoom="3.5659722"
     inkscape:cx="-50.196689"
     inkscape:cy="56.085686"
     inkscape:window-width="1920"
     inkscape:window-height="1043"
     inkscape:window-x="359"
     inkscape:window-y="1440"
     inkscape:window-maximized="1"
     inkscape:current-layer="emoji" />
  <g
     id="color" />
  <g
     id="hair" />
  <g
     id="skin" />
  <g
     id="skin-shadow" />
  <g
     id="color-1"
     style="fill:#5d9edf;fill-opacity:1">
    <path
       fill="#d0cfce"
       stroke="none"
       stroke-linejoin="round"
       stroke-miterlimit="10"
       stroke-width="2"
       d="M 59.0349,60 H 12.9651 C 12.4343,60 12,59.5657 12,59.0349 V 12.9651 C 12,12.4343 12.4343,12 12.9651,12 H 59.0349 C 59.5657,12 60,12.4343 60,12.9651 V 59.0349 C 60,59.5657 59.5657,60 59.0349,60 Z"
       id="path18"
       style="fill:#5d9edf;fill-opacity:1" />
  </g>
  <g
     id="line"
     style="stroke:#ffffff;stroke-opacity:1"
     transform="matrix(0.62777935,0,0,0.62777935,13.413295,13.399943)">
    <path
       fill="none"
       stroke="#000000"
       stroke-linecap="round"
       stroke-linejoin="round"
       stroke-miterlimit="10"
       stroke-width="2"
       d="m 31,17 18.7948,9.1111 15.817,7.6675 c 1.8509,0.8972 1.8509,3.5456 0,4.4428 L 49.7948,45.8889 31,55"
       id="path7694"
       style="stroke:#ffffff;stroke-opacity:1" />
    <path
       fill="none"
       stroke="#000000"
       stroke-linecap="round"
       stroke-linejoin="round"
       stroke-miterlimit="10"
       stroke-width="2"
       d="m 5,17 18.8824,9.1111 15.8908,7.6675 c 1.8595,0.8972 1.8595,3.5456 0,4.4428 L 23.8824,45.889 5,55"
       id="path7696"
       style="stroke:#ffffff;stroke-opacity:1" />
  </g>
</svg>
