<?xml version="1.0" encoding="UTF-8" standalone="no"?>
<svg
   id="emoji"
   viewBox="0 0 72 72"
   version="1.1"
   sodipodi:docname="23EF.svg"
   inkscape:version="1.2.2 (732a01da63, 2022-12-09, custom)"
   xmlns:inkscape="http://www.inkscape.org/namespaces/inkscape"
   xmlns:sodipodi="http://sodipodi.sourceforge.net/DTD/sodipodi-0.dtd"
   xmlns="http://www.w3.org/2000/svg"
   xmlns:svg="http://www.w3.org/2000/svg">
  <defs
     id="defs2755" />
  <sodipodi:namedview
     id="namedview2753"
     pagecolor="#ffffff"
     bordercolor="#666666"
     borderopacity="1.0"
     inkscape:showpageshadow="2"
     inkscape:pageopacity="0.0"
     inkscape:pagecheckerboard="0"
     inkscape:deskcolor="#d1d1d1"
     showgrid="false"
     inkscape:zoom="7.1319444"
     inkscape:cx="9.6747809"
     inkscape:cy="41.643622"
     inkscape:window-width="1920"
     inkscape:window-height="1043"
     inkscape:window-x="359"
     inkscape:window-y="1440"
     inkscape:window-maximized="1"
     inkscape:current-layer="emoji" />
  <g
     id="color" />
  <g
     id="hair" />
  <g
     id="skin" />
  <g
     id="skin-shadow" />
  <g
     id="color-1"
     style="fill:#5d9edf;fill-opacity:1">
    <path
       fill="#d0cfce"
       stroke="none"
       stroke-linejoin="round"
       stroke-miterlimit="10"
       stroke-width="2"
       d="M 59.0349,60 H 12.9651 C 12.4343,60 12,59.5657 12,59.0349 V 12.9651 C 12,12.4343 12.4343,12 12.9651,12 H 59.0349 C 59.5657,12 60,12.4343 60,12.9651 V 59.0349 C 60,59.5657 59.5657,60 59.0349,60 Z"
       id="path18"
       style="fill:#5d9edf;fill-opacity:1" />
  </g>
  <path
     fill="none"
     stroke="#000000"
     stroke-linejoin="round"
     stroke-miterlimit="10"
     stroke-width="2"
     d="M 59.034891,60 H 12.965099 c -0.5308,0 -0.9651,-0.4343 -0.9651,-0.9651 V 12.9651 c 0,-0.5308 0.4343,-0.9651 0.9651,-0.9651 h 46.069792 c 0.5308,0 0.96511,0.4343 0.96511,0.9651 v 46.0698 c 0,0.5308 -0.43431,0.9651 -0.96511,0.9651 z"
     id="path24"
     style="stroke:none" />
  <g
     id="line"
     style="fill:#ffffff;fill-opacity:1;stroke:#ffffff;stroke-opacity:1"
     transform="matrix(0.67905322,0,0,0.67905322,11.151721,12.016619)">
    <path
       fill="none"
       stroke="#000000"
       stroke-linecap="round"
       stroke-linejoin="round"
       stroke-miterlimit="10"
       stroke-width="2"
       d="M 14.1579,54.7165 C 14.5789,54.8866 15.0526,55 15.5263,55 16.2631,55 17,54.7165 17.6316,54.2628 L 43.6842,39.0087 43.9474,38.7252 C 44.6316,37.988 45,37.0807 45,36.06 45,35.0393 44.6316,34.0753 43.9474,33.3948 L 43.6842,33.1113 17.6316,17.7438 C 16.6842,16.9499 15.3158,16.7798 14.1579,17.2901 12.8421,17.8572 12,19.2749 12,20.8059 v 30.3947 c 0,1.5311 0.8421,2.9488 2.1579,3.5159 z"
       id="path2745"
       style="fill:#ffffff;fill-opacity:1;stroke:#ffffff;stroke-opacity:1" />
    <line
       x1="60"
       x2="60"
       y1="17"
       y2="55"
       fill="none"
       stroke="#000000"
       stroke-linecap="round"
       stroke-linejoin="round"
       stroke-miterlimit="10"
       stroke-width="2"
       id="line2747"
       style="fill:#ffffff;fill-opacity:1;stroke:#ffffff;stroke-opacity:1" />
    <line
       x1="52"
       x2="52"
       y1="17"
       y2="55"
       fill="none"
       stroke="#000000"
       stroke-linecap="round"
       stroke-linejoin="round"
       stroke-miterlimit="10"
       stroke-width="2"
       id="line2749"
       style="fill:#ffffff;fill-opacity:1;stroke:#ffffff;stroke-opacity:1" />
  </g>
</svg>
