<?xml version="1.0" encoding="UTF-8" standalone="no"?>
<svg
   id="emoji"
   viewBox="0 0 72 72"
   version="1.1"
   sodipodi:docname="23F9.svg"
   inkscape:version="1.2.2 (732a01da63, 2022-12-09, custom)"
   xmlns:inkscape="http://www.inkscape.org/namespaces/inkscape"
   xmlns:sodipodi="http://sodipodi.sourceforge.net/DTD/sodipodi-0.dtd"
   xmlns="http://www.w3.org/2000/svg"
   xmlns:svg="http://www.w3.org/2000/svg">
  <defs
     id="defs9116" />
  <sodipodi:namedview
     id="namedview9114"
     pagecolor="#ffffff"
     bordercolor="#666666"
     borderopacity="1.0"
     inkscape:showpageshadow="2"
     inkscape:pageopacity="0.0"
     inkscape:pagecheckerboard="0"
     inkscape:deskcolor="#d1d1d1"
     showgrid="false"
     inkscape:zoom="7.1319444"
     inkscape:cx="21.943525"
     inkscape:cy="39.820837"
     inkscape:window-width="1920"
     inkscape:window-height="1043"
     inkscape:window-x="359"
     inkscape:window-y="1440"
     inkscape:window-maximized="1"
     inkscape:current-layer="emoji" />
  <g
     id="color" />
  <g
     id="hair" />
  <g
     id="skin" />
  <g
     id="skin-shadow" />
  <g
     id="color-1"
     style="fill:#5d9edf;fill-opacity:1">
    <path
       fill="#d0cfce"
       stroke="none"
       stroke-linejoin="round"
       stroke-miterlimit="10"
       stroke-width="2"
       d="M 59.0349,60 H 12.9651 C 12.4343,60 12,59.5657 12,59.0349 V 12.9651 C 12,12.4343 12.4343,12 12.9651,12 H 59.0349 C 59.5657,12 60,12.4343 60,12.9651 V 59.0349 C 60,59.5657 59.5657,60 59.0349,60 Z"
       id="path18"
       style="fill:#5d9edf;fill-opacity:1" />
  </g>
  <g
     id="line"
     transform="matrix(0.75838143,0,0,0.75838143,8.6982685,8.6982685)"
     style="fill:#ffffff;fill-opacity:1;stroke:#ffffff;stroke-opacity:1">
    <path
       fill="#000000"
       stroke="none"
       d="M 49.2614,18 C 51.8743,18 54,20.1257 54,22.7386 V 49.2615 C 54,51.8743 51.8743,54 49.2614,54 H 22.7386 C 20.1257,54 18,51.8743 18,49.2614 V 22.7386 C 18,20.1257 20.1257,18 22.7386,18 h 26.5228 m 0,-2 H 22.7386 C 19.017,16 16,19.017 16,22.7386 V 49.2615 C 16,52.983 19.017,56 22.7386,56 H 49.2615 C 52.983,56 56,52.983 56,49.2614 V 22.7386 C 56,19.017 52.983,16 49.2614,16 Z"
       id="path9110"
       style="fill:#ffffff;fill-opacity:1;stroke:#ffffff;stroke-opacity:1" />
  </g>
  <rect
     style="fill:#ffffff;fill-opacity:1;stroke:#ffffff;stroke-width:0.755906;stroke-opacity:1"
     id="rect9767"
     width="26.991259"
     height="26.677383"
     x="22.47419"
     y="22.580275" />
  <rect
     style="fill:#ffffff;fill-opacity:1;stroke:#ffffff;stroke-width:0.755906;stroke-opacity:1"
     id="rect9769"
     width="0.079426765"
     height="1.0204555"
     x="39.430046"
     y="33.210117" />
</svg>
