<?xml version="1.0" encoding="UTF-8" standalone="no"?>
<!-- Generator: Adobe Illustrator 16.0.0, SVG Export Plug-In . SVG Version: 6.00 Build 0)  -->

<svg
   version="1.1"
   id="Ebene_1"
   x="0px"
   y="0px"
   width="30px"
   height="30px"
   viewBox="0 0 30 30"
   enable-background="new 0 0 30 30"
   xml:space="preserve"
   sodipodi:docname="logo-github.a1fdb524.svg"
   inkscape:version="1.2.2 (732a01da63, 2022-12-09, custom)"
   xmlns:inkscape="http://www.inkscape.org/namespaces/inkscape"
   xmlns:sodipodi="http://sodipodi.sourceforge.net/DTD/sodipodi-0.dtd"
   xmlns="http://www.w3.org/2000/svg"
   xmlns:svg="http://www.w3.org/2000/svg"><defs
   id="defs25" /><sodipodi:namedview
   id="namedview23"
   pagecolor="#ffffff"
   bordercolor="#666666"
   borderopacity="1.0"
   inkscape:showpageshadow="2"
   inkscape:pageopacity="0.0"
   inkscape:pagecheckerboard="0"
   inkscape:deskcolor="#d1d1d1"
   showgrid="false"
   inkscape:zoom="29.166667"
   inkscape:cx="11.485714"
   inkscape:cy="15.051428"
   inkscape:window-width="2560"
   inkscape:window-height="1365"
   inkscape:window-x="0"
   inkscape:window-y="0"
   inkscape:window-maximized="1"
   inkscape:current-layer="Ebene_1" />
<path
   fill-rule="evenodd"
   clip-rule="evenodd"
   fill="#D0CFCE"
   stroke="#221E1B"
   stroke-width="1.5"
   stroke-linecap="round"
   stroke-linejoin="round"
   stroke-miterlimit="10"
   d="  M12.397,24.827c0-0.347-0.013-1.489-0.013-2.905c0-0.99,0.327-1.636,0.697-1.965c-2.33-0.27-4.781-1.18-4.781-5.251  c0-1.159,0.41-2.107,1.08-2.849c-0.107-0.269-0.469-1.349,0.104-2.811c0,0,0.881-0.286,2.887,1.088  c0.837-0.235,1.735-0.354,2.629-0.356c0.892,0.002,1.79,0.121,2.629,0.356c2.004-1.374,2.885-1.088,2.885-1.088  c0.573,1.462,0.213,2.542,0.104,2.811c0.672,0.742,1.078,1.689,1.078,2.849c0,4.08-2.454,4.979-4.795,5.241  c0.379,0.33,0.714,0.977,0.714,1.969c0,1.419-0.013,2.563-0.013,2.911c0,0.285,0.189,0.614,0.722,0.512  c4.17-1.406,7.175-5.386,7.175-10.076c0-5.866-4.702-10.621-10.501-10.621C9.201,4.642,4.5,9.396,4.5,15.263  c0,4.692,3.008,8.673,7.184,10.077C12.206,25.438,12.397,25.11,12.397,24.827z"
   id="path18"
   style="stroke-width:0.9;stroke-dasharray:none" />
<path
   fill-rule="evenodd"
   clip-rule="evenodd"
   fill="none"
   stroke="#221E1B"
   stroke-width="1.5"
   stroke-linecap="round"
   stroke-miterlimit="10"
   d="  M7.625,19.768c0.961,0.292,1.34,0.612,1.792,1.37c0.451,0.758,0.98,1.604,2.968,1.122"
   id="path20"
   style="stroke-width:0.9;stroke-dasharray:none" />
</svg>
