<?xml version="1.0" encoding="UTF-8" standalone="no"?>
<svg
   id="emoji"
   viewBox="0 0 72 72"
   version="1.1"
   sodipodi:docname="chatprotect.svg"
   xml:space="preserve"
   inkscape:version="1.2.2 (732a01da63, 2022-12-09, custom)"
   xmlns:inkscape="http://www.inkscape.org/namespaces/inkscape"
   xmlns:sodipodi="http://sodipodi.sourceforge.net/DTD/sodipodi-0.dtd"
   xmlns="http://www.w3.org/2000/svg"
   xmlns:svg="http://www.w3.org/2000/svg"><defs
     id="defs212" /><sodipodi:namedview
     id="namedview210"
     pagecolor="#ffffff"
     bordercolor="#666666"
     borderopacity="1.0"
     inkscape:showpageshadow="2"
     inkscape:pageopacity="0.0"
     inkscape:pagecheckerboard="0"
     inkscape:deskcolor="#d1d1d1"
     showgrid="false"
     inkscape:zoom="16.138889"
     inkscape:cx="36"
     inkscape:cy="36"
     inkscape:window-width="2560"
     inkscape:window-height="1365"
     inkscape:window-x="0"
     inkscape:window-y="0"
     inkscape:window-maximized="1"
     inkscape:current-layer="emoji"><inkscape:page
       x="0"
       y="0"
       width="72"
       height="72"
       id="page306"
       inkscape:export-filename="Page 1.png"
       inkscape:export-xdpi="226.42"
       inkscape:export-ydpi="226.42" /><inkscape:page
       x="82"
       y="0"
       width="72"
       height="72"
       id="page308" /><inkscape:page
       x="164"
       y="0"
       width="72"
       height="72"
       id="page349" /></sodipodi:namedview><g
     id="color"><path
       fill="#D0CFCE"
       stroke="none"
       d="M35.9899,10.9064c-11.0457,0-20,4.4773-20,10l0.0261,0.2749c2.9513,30.53,18.6744,39.0674,19.8983,39.6877 l0.0756,0.0374c0,0,17-8,20-40C56.5055,15.4078,47.0356,10.9064,35.9899,10.9064z M35.992,54.884l-0.0604-0.0299 c-0.978-0.4957-13.5423-7.318-15.9006-31.7145L20.01,22.9201c0-4.4133,7.1553-7.991,15.9819-7.991 c8.8265,0,16.3938,3.5969,15.9819,7.991C49.5766,48.4912,35.992,54.884,35.992,54.884z"
       id="path194" /><path
       fill="#EA5A47"
       stroke="none"
       d="M35,17.9064l3,4l-3,4l3,4l-3,4l3,4l-3,4l3,4l-3,4l1,5.2597c0,0-15-11-16-32c0,0,0-8,16-8L35,17.9064z"
       id="path196" /><path
       fill="#D22F27"
       stroke="none"
       d="M36,15.1661l-1,2.7403l3,4l-3,4l3,4l-3,4l3,4l-3,4l3,4l-3,4l1.002,4.9774 c0,0,13.8441-8.9583,15.9819-31.9638C51.9839,22.92,51.1505,15.9498,36,15.1661z"
       id="path198" /></g><g
     id="hair" /><g
     id="skin" /><g
     id="skin-shadow" /><g
     id="line"><path
       fill="none"
       stroke="#000000"
       stroke-linecap="round"
       stroke-linejoin="round"
       stroke-miterlimit="10"
       stroke-width="2"
       d="M35.9245,60.8691c-1.2239-0.6204-16.947-9.1579-19.8983-39.6878L16,20.9064c0-5.5228,8.9543-10,20-10s20.5155,4.5013,20,10 c-3,32-20,40-20,40L35.9245,60.8691z"
       id="path204" /><path
       fill="none"
       stroke="#000000"
       stroke-linecap="round"
       stroke-linejoin="round"
       stroke-miterlimit="10"
       stroke-width="2"
       d="M35.9417,54.854c-0.978-0.4958-13.5423-7.318-15.9006-31.7144L20.0201,22.92c0-4.4133,7.1553-7.991,15.9819-7.991 s16.3938,3.5969,15.9819,7.991C49.5866,48.4911,36.002,54.8838,36.002,54.8838L35.9417,54.854z"
       id="path206" /></g><path
     fill="none"
     stroke="#000000"
     stroke-linecap="round"
     stroke-linejoin="round"
     stroke-width="1.59404"
     d="m 44.226098,38.570378 a 11.913215,12.694258 0 0 1 -15.156082,0"
     id="path292-0" /><path
     fill="none"
     stroke="#000000"
     stroke-linecap="round"
     stroke-miterlimit="10"
     stroke-width="1.59404"
     d="m 33.323423,28.843055 a 3.6491526,3.8883951 0 0 0 -6.669652,0"
     id="path294-9" /><path
     fill="none"
     stroke="#000000"
     stroke-linecap="round"
     stroke-miterlimit="10"
     stroke-width="1.59404"
     d="m 46.642343,28.843055 a 3.6491526,3.8883951 0 0 0 -6.669652,0"
     id="path296-3" /><g
     id="line-7"
     transform="matrix(-0.44193892,0,0,0.44193892,75.518678,8.0796691)"
     style="fill:#ffffff;fill-opacity:1"><path
       fill="none"
       stroke="#000000"
       stroke-linecap="round"
       stroke-linejoin="round"
       stroke-miterlimit="10"
       stroke-width="2"
       d="M 58.960914,53.2979 C 61.057351,49.27351 61.991879,44.592395 61.367676,39.750666 59.743481,27.152331 48.213945,18.256112 35.61561,19.880308 23.017276,21.504504 14.121058,33.034039 15.745254,45.632374 c 1.624182,12.598235 13.15373,21.494552 25.752066,19.870358 3.727253,-0.480524 7.126177,-1.833325 10.0288,-3.819063 l 5.036765,1.420442 5.993625,1.69031 -1.858813,-5.943512 z"
       id="path339"
       style="fill:#ffffff;fill-opacity:1" /></g></svg>
