<?xml version="1.0" encoding="UTF-8" standalone="no"?>
<!-- Created with Inkscape (http://www.inkscape.org/) -->

<svg
   width="26.754999mm"
   height="26.754999mm"
   viewBox="0 0 26.754999 26.755"
   version="1.1"
   id="svg2051"
   inkscape:version="1.2.2 (732a01da63, 2022-12-09, custom)"
   sodipodi:docname="chatprotect.svg"
   xmlns:inkscape="http://www.inkscape.org/namespaces/inkscape"
   xmlns:sodipodi="http://sodipodi.sourceforge.net/DTD/sodipodi-0.dtd"
   xmlns="http://www.w3.org/2000/svg"
   xmlns:svg="http://www.w3.org/2000/svg">
  <sodipodi:namedview
     id="namedview2053"
     pagecolor="#ffffff"
     bordercolor="#666666"
     borderopacity="1.0"
     inkscape:showpageshadow="2"
     inkscape:pageopacity="0.0"
     inkscape:pagecheckerboard="0"
     inkscape:deskcolor="#d1d1d1"
     inkscape:document-units="mm"
     showgrid="false"
     inkscape:zoom="3.1179854"
     inkscape:cx="36.56207"
     inkscape:cy="41.212509"
     inkscape:window-width="1920"
     inkscape:window-height="1016"
     inkscape:window-x="324"
     inkscape:window-y="1467"
     inkscape:window-maximized="1"
     inkscape:current-layer="layer1">
    <sodipodi:guide
       position="-144.74125,140.06677"
       orientation="0,793.70079"
       id="guide2539"
       inkscape:locked="false" />
    <sodipodi:guide
       position="65.258738,140.06676"
       orientation="1122.5197,0"
       id="guide2541"
       inkscape:locked="false" />
    <sodipodi:guide
       position="65.258738,-156.93315"
       orientation="0,-793.70079"
       id="guide2543"
       inkscape:locked="false" />
    <sodipodi:guide
       position="-144.74124,-156.93317"
       orientation="-1122.5197,0"
       id="guide2545"
       inkscape:locked="false" />
    <sodipodi:guide
       position="0,26.754997"
       orientation="0,78.444791"
       id="guide2547"
       inkscape:locked="false" />
    <sodipodi:guide
       position="20.755182,26.754997"
       orientation="59.445872,0"
       id="guide2549"
       inkscape:locked="false" />
    <sodipodi:guide
       position="20.75518,11.026612"
       orientation="0,-78.444791"
       id="guide2551"
       inkscape:locked="false" />
    <sodipodi:guide
       position="0,11.026612"
       orientation="-59.445872,0"
       id="guide2553"
       inkscape:locked="false" />
    <sodipodi:guide
       position="0,26.754997"
       orientation="0,78.444791"
       id="guide2555"
       inkscape:locked="false" />
    <sodipodi:guide
       position="26.896999,0.48909273"
       orientation="59.445872,0"
       id="guide2557"
       inkscape:locked="false" />
    <sodipodi:guide
       position="34.255073,-2.2525636"
       orientation="0,-78.444791"
       id="guide2559"
       inkscape:locked="false" />
    <sodipodi:guide
       position="45.623195,6.1035754"
       orientation="-59.445872,0"
       id="guide2561"
       inkscape:locked="false" />
  </sodipodi:namedview>
  <defs
     id="defs2048" />
  <g
     inkscape:label="Layer 1"
     inkscape:groupmode="layer"
     id="layer1"
     transform="translate(-144.74126,-113.3118)">
    <g
       id="g301">
      <g
         id="color"
         transform="matrix(0.26458333,0,0,0.26458333,145.50119,118.71122)">
        <path
           fill="#d22f27"
           d="m 34,16.1123 v -2.5109 c 0,-1.3807 1.1193,-2.5 2.5,-2.5 v 0 c 1.3807,0 2.5,1.1193 2.5,2.5 v 2.5"
           id="path1336" />
        <path
           fill="#d0cfce"
           d="m 13.5,41.1014 v 0 c -1.3807,0 -2.5,-1.1193 -2.5,-2.5 v -8 c 0,-1.3807 1.1193,-2.5 2.5,-2.5 v 0 c 1.3807,0 2.5,1.1193 2.5,2.5 v 8 c 0,1.3807 -1.1193,2.5 -2.5,2.5 z"
           id="path1338" />
        <path
           fill="#d0cfce"
           d="m 58.5,41.1014 v 0 c 1.3807,0 2.5,-1.1193 2.5,-2.5 v -8 c 0,-1.3807 -1.1193,-2.5 -2.5,-2.5 v 0 c -1.3807,0 -2.5,1.1193 -2.5,2.5 v 8 c 0,1.3807 1.1193,2.5 2.5,2.5 z"
           id="path1340" />
        <path
           fill="#d0cfce"
           d="M 47.4505,56.1123 H 24.5495 C 19.8473,56.1123 16,52.265 16,47.5628 v -22.901 c 0,-4.7022 3.8473,-8.5495 8.5495,-8.5495 h 22.901 c 4.7022,0 8.5495,3.8473 8.5495,8.5495 v 22.901 c 0,4.7021 -3.8473,8.5495 -8.5495,8.5495 z"
           id="path1342" />
        <path
           fill="#9b9b9a"
           d="M 35.4977,56.1115 H 48.7842 C 52.7529,56.1115 56,52.2642 56,47.562 V 24.661 c 0,-4.7022 -3.2471,-8.5495 -7.2158,-8.5495 h -2.3526"
           id="path1344" />
        <circle
           cx="44.834599"
           cy="29.002701"
           fill="#ffffff"
           id="ellipse1346"
           r="2.8338001" />
        <circle
           cx="27.3342"
           cy="29.002199"
           fill="#ffffff"
           id="ellipse1348"
           r="2.8338001" />
        <path
           fill="#ffffff"
           d="m 44.5,47.5005 h -17 c -2.2,0 -4,-1.8 -4,-4 v 0 c 0,-2.2 1.8,-4 4,-4 h 17 c 2.2,0 4,1.8 4,4 v 0 c 0,2.2 -1.8,4 -4,4 z"
           id="path1350" />
      </g>
      <g
         id="line"
         transform="matrix(0.26458333,0,0,0.26458333,145.50119,118.71122)">
        <path
           fill="none"
           stroke="#000000"
           stroke-linecap="round"
           stroke-linejoin="round"
           stroke-miterlimit="2"
           stroke-width="2"
           d="M 34,16.0109 V 13.5 C 34,12.1193 35.1193,11 36.5,11 v 0 c 1.3807,0 2.5,1.1193 2.5,2.5 V 16"
           id="path1356" />
        <path
           fill="none"
           stroke="#000000"
           stroke-linecap="round"
           stroke-linejoin="round"
           stroke-miterlimit="2"
           stroke-width="2"
           d="M 47.4505,56 H 24.5495 C 19.8473,56 16,52.1527 16,47.4505 V 24.5495 C 16,19.8473 19.8473,16 24.5495,16 h 22.901 C 52.1527,16 56,19.8473 56,24.5495 v 22.901 C 56,52.1527 52.1527,56 47.4505,56 Z"
           id="path1358" />
        <circle
           cx="44.834599"
           cy="29.002199"
           fill="none"
           stroke="#000000"
           stroke-linecap="round"
           stroke-linejoin="round"
           stroke-miterlimit="2"
           stroke-width="2"
           id="ellipse1360"
           r="2.8338001" />
        <circle
           cx="27.3342"
           cy="29.001699"
           fill="none"
           stroke="#000000"
           stroke-linecap="round"
           stroke-linejoin="round"
           stroke-miterlimit="2"
           stroke-width="2"
           id="ellipse1362"
           r="2.8338001" />
        <path
           fill="none"
           stroke="#000000"
           stroke-miterlimit="2"
           stroke-width="2"
           d="m 44.5,47.5 h -17 c -2.2,0 -4,-1.8 -4,-4 v 0 c 0,-2.2 1.8,-4 4,-4 h 17 c 2.2,0 4,1.8 4,4 v 0 c 0,2.2 -1.8,4 -4,4 z"
           id="path1364" />
        <path
           fill="none"
           stroke="#000000"
           stroke-linecap="round"
           stroke-linejoin="round"
           stroke-miterlimit="2"
           stroke-width="2"
           d="m 13.5,41 v 0 C 12.1193,41 11,39.8807 11,38.5 v -8 C 11,29.1193 12.1193,28 13.5,28 v 0 c 1.3807,0 2.5,1.1193 2.5,2.5 v 8 c 0,1.3807 -1.1193,2.5 -2.5,2.5 z"
           id="path1366" />
        <path
           fill="none"
           stroke="#000000"
           stroke-linecap="round"
           stroke-linejoin="round"
           stroke-miterlimit="2"
           stroke-width="2"
           d="m 58.5,41 v 0 c 1.3807,0 2.5,-1.1193 2.5,-2.5 v -8 C 61,29.1193 59.8807,28 58.5,28 v 0 C 57.1193,28 56,29.1193 56,30.5 v 8 c 0,1.3807 1.1193,2.5 2.5,2.5 z"
           id="path1368" />
        <line
           x1="28"
           x2="28"
           y1="40"
           y2="47"
           fill="none"
           stroke="#000000"
           stroke-linecap="round"
           stroke-linejoin="round"
           stroke-miterlimit="2"
           stroke-width="2"
           id="line1370" />
        <line
           x1="33"
           x2="33"
           y1="40"
           y2="47"
           fill="none"
           stroke="#000000"
           stroke-linecap="round"
           stroke-linejoin="round"
           stroke-miterlimit="2"
           stroke-width="2"
           id="line1372" />
        <line
           x1="38"
           x2="38"
           y1="40"
           y2="47"
           fill="none"
           stroke="#000000"
           stroke-linecap="round"
           stroke-linejoin="round"
           stroke-miterlimit="2"
           stroke-width="2"
           id="line1374" />
        <line
           x1="43"
           x2="43"
           y1="40"
           y2="47"
           fill="none"
           stroke="#000000"
           stroke-linecap="round"
           stroke-linejoin="round"
           stroke-miterlimit="2"
           stroke-width="2"
           id="line1376" />
      </g>
      <g
         id="line-1"
         transform="matrix(-0.22289523,0,0,0.22289523,171.57695,115.38934)"
         style="fill:#ffffff;fill-opacity:1">
        <path
           fill="none"
           stroke="#000000"
           stroke-linecap="round"
           stroke-linejoin="round"
           stroke-miterlimit="10"
           stroke-width="2"
           d="M 54.8808,49.1283 C 57.4746,45.405 59,40.8818 59,36 59,23.2974 48.7026,13 36,13 23.2974,13 13,23.2974 13,36 c 0,12.7025 10.2974,23 23,23 3.7581,0 7.3021,-0.9071 10.4348,-2.5054 l 4.8138,2.0528 5.7283,2.4428 -1.0836,-6.1324 z"
           id="path1406"
           style="fill:#ffffff;fill-opacity:1" />
      </g>
      <g
         id="g1946"
         transform="matrix(0.1466722,0,0,0.1466722,134.24409,118.21134)">
        <g
           id="color-7"
           transform="translate(164)">
          <path
             fill="#ea5a47"
             d="M 58.14,21.78 50.38,13.767 36.09,27.987 21.87,13.767 13.857,21.78 28.217,36 l -14.36,14.22 8.014,8.013 14.22,-14.22 14.29,14.22 7.76,-8.013 L 43.921,36 Z"
             id="path1440" />
        </g>
        <g
           id="line-2"
           transform="translate(164)">
          <path
             fill="none"
             stroke="#000000"
             stroke-linecap="round"
             stroke-linejoin="round"
             stroke-miterlimit="10"
             stroke-width="2"
             d="M 58.14,21.78 50.38,13.767 36.09,27.987 21.87,13.767 13.857,21.78 28.207,36 l -14.35,14.22 8.014,8.013 14.22,-14.22 14.29,14.22 7.76,-8.013 L 43.921,36 Z"
             id="path1446" />
        </g>
      </g>
    </g>
  </g>
</svg>
