<?xml version="1.0" encoding="UTF-8" standalone="no"?>
<!-- Created with Inkscape (http://www.inkscape.org/) -->

<svg
   width="26.754999mm"
   height="26.754999mm"
   viewBox="0 0 26.754999 26.755"
   version="1.1"
   id="svg2051"
   inkscape:version="1.2.2 (732a01da63, 2022-12-09, custom)"
   sodipodi:docname="chatprotect-robot-unsure"
   inkscape:export-filename="../e4d89eb/favicon.svg"
   inkscape:export-xdpi="60.758739"
   inkscape:export-ydpi="60.758739"
   xmlns:inkscape="http://www.inkscape.org/namespaces/inkscape"
   xmlns:sodipodi="http://sodipodi.sourceforge.net/DTD/sodipodi-0.dtd"
   xmlns="http://www.w3.org/2000/svg"
   xmlns:svg="http://www.w3.org/2000/svg">
  <sodipodi:namedview
     id="namedview2053"
     pagecolor="#ffffff"
     bordercolor="#666666"
     borderopacity="1.0"
     inkscape:showpageshadow="2"
     inkscape:pageopacity="0.0"
     inkscape:pagecheckerboard="0"
     inkscape:deskcolor="#d1d1d1"
     inkscape:document-units="mm"
     showgrid="false"
     inkscape:zoom="3.1179854"
     inkscape:cx="36.56207"
     inkscape:cy="41.052149"
     inkscape:window-width="2560"
     inkscape:window-height="1365"
     inkscape:window-x="0"
     inkscape:window-y="0"
     inkscape:window-maximized="1"
     inkscape:current-layer="layer1">
    <sodipodi:guide
       position="-144.74125,140.06677"
       orientation="0,793.70079"
       id="guide2539"
       inkscape:locked="false" />
    <sodipodi:guide
       position="65.258738,140.06676"
       orientation="1122.5197,0"
       id="guide2541"
       inkscape:locked="false" />
    <sodipodi:guide
       position="65.258738,-156.93315"
       orientation="0,-793.70079"
       id="guide2543"
       inkscape:locked="false" />
    <sodipodi:guide
       position="-144.74124,-156.93317"
       orientation="-1122.5197,0"
       id="guide2545"
       inkscape:locked="false" />
    <sodipodi:guide
       position="0,26.754997"
       orientation="0,78.444791"
       id="guide2547"
       inkscape:locked="false" />
    <sodipodi:guide
       position="20.755182,26.754997"
       orientation="59.445872,0"
       id="guide2549"
       inkscape:locked="false" />
    <sodipodi:guide
       position="20.75518,11.026612"
       orientation="0,-78.444791"
       id="guide2551"
       inkscape:locked="false" />
    <sodipodi:guide
       position="0,11.026612"
       orientation="-59.445872,0"
       id="guide2553"
       inkscape:locked="false" />
    <sodipodi:guide
       position="0,26.754997"
       orientation="0,78.444791"
       id="guide2555"
       inkscape:locked="false" />
    <sodipodi:guide
       position="26.896999,0.48909273"
       orientation="59.445872,0"
       id="guide2557"
       inkscape:locked="false" />
    <sodipodi:guide
       position="34.255073,-2.2525636"
       orientation="0,-78.444791"
       id="guide2559"
       inkscape:locked="false" />
    <sodipodi:guide
       position="45.623195,6.1035754"
       orientation="-59.445872,0"
       id="guide2561"
       inkscape:locked="false" />
  </sodipodi:namedview>
  <defs
     id="defs2048" />
  <g
     inkscape:label="Layer 1"
     inkscape:groupmode="layer"
     id="layer1"
     transform="translate(-144.74126,-113.3118)">
    <g
       id="color"
       transform="matrix(0.26458333,0,0,0.26458333,145.50119,118.71122)">
      <path
         fill="#d22f27"
         d="m 34,16.1123 v -2.5109 c 0,-1.3807 1.1193,-2.5 2.5,-2.5 v 0 c 1.3807,0 2.5,1.1193 2.5,2.5 v 2.5"
         id="path1336" />
      <path
         fill="#d0cfce"
         d="m 13.5,41.1014 v 0 c -1.3807,0 -2.5,-1.1193 -2.5,-2.5 v -8 c 0,-1.3807 1.1193,-2.5 2.5,-2.5 v 0 c 1.3807,0 2.5,1.1193 2.5,2.5 v 8 c 0,1.3807 -1.1193,2.5 -2.5,2.5 z"
         id="path1338" />
      <path
         fill="#d0cfce"
         d="m 58.5,41.1014 v 0 c 1.3807,0 2.5,-1.1193 2.5,-2.5 v -8 c 0,-1.3807 -1.1193,-2.5 -2.5,-2.5 v 0 c -1.3807,0 -2.5,1.1193 -2.5,2.5 v 8 c 0,1.3807 1.1193,2.5 2.5,2.5 z"
         id="path1340" />
      <path
         fill="#d0cfce"
         d="M 47.4505,56.1123 H 24.5495 C 19.8473,56.1123 16,52.265 16,47.5628 v -22.901 c 0,-4.7022 3.8473,-8.5495 8.5495,-8.5495 h 22.901 c 4.7022,0 8.5495,3.8473 8.5495,8.5495 v 22.901 c 0,4.7021 -3.8473,8.5495 -8.5495,8.5495 z"
         id="path1342" />
      <path
         fill="#9b9b9a"
         d="M 35.4977,56.1115 H 48.7842 C 52.7529,56.1115 56,52.2642 56,47.562 V 24.661 c 0,-4.7022 -3.2471,-8.5495 -7.2158,-8.5495 h -2.3526"
         id="path1344" />
      <circle
         cx="44.834599"
         cy="29.002701"
         fill="#ffffff"
         id="ellipse1346"
         r="2.8338001" />
      <circle
         cx="27.3342"
         cy="29.002199"
         fill="#ffffff"
         id="ellipse1348"
         r="2.8338001" />
      <path
         fill="#ffffff"
         d="m 44.5,47.5005 h -17 c -2.2,0 -4,-1.8 -4,-4 v 0 c 0,-2.2 1.8,-4 4,-4 h 17 c 2.2,0 4,1.8 4,4 v 0 c 0,2.2 -1.8,4 -4,4 z"
         id="path1350" />
    </g>
    <g
       id="line"
       transform="matrix(0.26458333,0,0,0.26458333,145.50119,118.71122)">
      <path
         fill="none"
         stroke="#000000"
         stroke-linecap="round"
         stroke-linejoin="round"
         stroke-miterlimit="2"
         stroke-width="2"
         d="M 34,16.0109 V 13.5 C 34,12.1193 35.1193,11 36.5,11 v 0 c 1.3807,0 2.5,1.1193 2.5,2.5 V 16"
         id="path1356" />
      <path
         fill="none"
         stroke="#000000"
         stroke-linecap="round"
         stroke-linejoin="round"
         stroke-miterlimit="2"
         stroke-width="2"
         d="M 47.4505,56 H 24.5495 C 19.8473,56 16,52.1527 16,47.4505 V 24.5495 C 16,19.8473 19.8473,16 24.5495,16 h 22.901 C 52.1527,16 56,19.8473 56,24.5495 v 22.901 C 56,52.1527 52.1527,56 47.4505,56 Z"
         id="path1358" />
      <circle
         cx="44.834599"
         cy="29.002199"
         fill="none"
         stroke="#000000"
         stroke-linecap="round"
         stroke-linejoin="round"
         stroke-miterlimit="2"
         stroke-width="2"
         id="ellipse1360"
         r="2.8338001" />
      <circle
         cx="27.3342"
         cy="29.001699"
         fill="none"
         stroke="#000000"
         stroke-linecap="round"
         stroke-linejoin="round"
         stroke-miterlimit="2"
         stroke-width="2"
         id="ellipse1362"
         r="2.8338001" />
      <path
         fill="none"
         stroke="#000000"
         stroke-miterlimit="2"
         stroke-width="2"
         d="m 44.5,47.5 h -17 c -2.2,0 -4,-1.8 -4,-4 v 0 c 0,-2.2 1.8,-4 4,-4 h 17 c 2.2,0 4,1.8 4,4 v 0 c 0,2.2 -1.8,4 -4,4 z"
         id="path1364" />
      <path
         fill="none"
         stroke="#000000"
         stroke-linecap="round"
         stroke-linejoin="round"
         stroke-miterlimit="2"
         stroke-width="2"
         d="m 13.5,41 v 0 C 12.1193,41 11,39.8807 11,38.5 v -8 C 11,29.1193 12.1193,28 13.5,28 v 0 c 1.3807,0 2.5,1.1193 2.5,2.5 v 8 c 0,1.3807 -1.1193,2.5 -2.5,2.5 z"
         id="path1366" />
      <path
         fill="none"
         stroke="#000000"
         stroke-linecap="round"
         stroke-linejoin="round"
         stroke-miterlimit="2"
         stroke-width="2"
         d="m 58.5,41 v 0 c 1.3807,0 2.5,-1.1193 2.5,-2.5 v -8 C 61,29.1193 59.8807,28 58.5,28 v 0 C 57.1193,28 56,29.1193 56,30.5 v 8 c 0,1.3807 1.1193,2.5 2.5,2.5 z"
         id="path1368" />
      <line
         x1="28"
         x2="28"
         y1="40"
         y2="47"
         fill="none"
         stroke="#000000"
         stroke-linecap="round"
         stroke-linejoin="round"
         stroke-miterlimit="2"
         stroke-width="2"
         id="line1370" />
      <line
         x1="33"
         x2="33"
         y1="40"
         y2="47"
         fill="none"
         stroke="#000000"
         stroke-linecap="round"
         stroke-linejoin="round"
         stroke-miterlimit="2"
         stroke-width="2"
         id="line1372" />
      <line
         x1="38"
         x2="38"
         y1="40"
         y2="47"
         fill="none"
         stroke="#000000"
         stroke-linecap="round"
         stroke-linejoin="round"
         stroke-miterlimit="2"
         stroke-width="2"
         id="line1374" />
      <line
         x1="43"
         x2="43"
         y1="40"
         y2="47"
         fill="none"
         stroke="#000000"
         stroke-linecap="round"
         stroke-linejoin="round"
         stroke-miterlimit="2"
         stroke-width="2"
         id="line1376" />
    </g>
    <g
       id="line-1"
       transform="matrix(-0.22289523,0,0,0.22289523,171.57695,115.38934)"
       style="fill:#ffffff;fill-opacity:1">
      <path
         fill="none"
         stroke="#000000"
         stroke-linecap="round"
         stroke-linejoin="round"
         stroke-miterlimit="10"
         stroke-width="2"
         d="M 54.8808,49.1283 C 57.4746,45.405 59,40.8818 59,36 59,23.2974 48.7026,13 36,13 23.2974,13 13,23.2974 13,36 c 0,12.7025 10.2974,23 23,23 3.7581,0 7.3021,-0.9071 10.4348,-2.5054 l 4.8138,2.0528 5.7283,2.4428 -1.0836,-6.1324 z"
         id="path1406"
         style="fill:#ffffff;fill-opacity:1" />
    </g>
    <g
       id="color-3"
       transform="matrix(0.12377884,0,0,0.12377884,159.13492,119.26333)">
      <path
         fill="#d22f27"
         stroke-miterlimit="10"
         d="M 48.72,20.15 C 49.0251,29.448 40.699,32.9 37.9,39.36 v 7.565 c 0,1.39 -1.11,2.5 -2.5,2.5 -1.38,0 -2.5,-1.11 -2.5,-2.5 V 37.06 C 36.393,30.918 43.28,29.591 43.57,20 c 0,-5.66 -6.543,-6.151 -7.988,-6.175 h -0.05 c -5.767,1.187 -6.135,4.99 -7.289,9.549 -0.6671,1.521 -1.564,2.045 -2.9,2.03 -1.36,-0.2401 -2.26,-1.54 -2.02,-2.9 0.5877,-2.752 0.758,-6.639 2.35,-8.502 2.71,-3.14 4.819,-4.957 9.179,-5.167 0.24,0 0.49,-0.01 0.73,-0.01 0.09,0 0.18,0 0.27,0.01 8.27,0.2401 12.6,2.992 12.87,11.32 z"
         id="path523" />
      <circle
         cx="34.950001"
         cy="58.84"
         r="3"
         fill="#d22f27"
         stroke-miterlimit="10"
         id="circle525" />
    </g>
    <g
       id="hair"
       transform="matrix(0.12377884,0,0,0.12377884,159.13492,119.26333)" />
    <g
       id="skin"
       transform="matrix(0.12377884,0,0,0.12377884,159.13492,119.26333)" />
    <g
       id="skin-shadow"
       transform="matrix(0.12377884,0,0,0.12377884,159.13492,119.26333)" />
    <g
       id="line-6"
       transform="matrix(0.12377884,0,0,0.12377884,159.13492,119.26333)">
      <circle
         cx="35.299999"
         cy="58.84"
         r="2.625"
         fill="none"
         stroke="#000000"
         stroke-linecap="round"
         stroke-linejoin="round"
         stroke-miterlimit="10"
         stroke-width="1.75"
         id="circle531" />
      <path
         d="m 35.67,10.07 c 6.57,0 12.03,3.431 12.03,10.21 0,3.671 -0.48,6.526 -3.71,9.755 -3.956,3.956 -7.184,6.346 -7.208,8.549 -0.0651,5.826 -0.005,8.278 -0.0044,8.36 a 1.476,1.476 0 0 1 -1.464,1.487 h -0.0115 a 1.476,1.476 0 0 1 -1.476,-1.464 c -5e-4,-0.0819 -0.0607,-2.561 0.0044,-8.416 0.0358,-3.231 3.63,-6.127 8.385,-10.88 2.178,-2.174 2.474,-4.716 2.474,-7.127 0,-3.282 -2.965,-7.587 -8.984,-7.587 -5.338,0 -8.499,3.467 -8.499,9.552 a 1.434,1.434 0 0 1 -1.395,1.587 1.552,1.552 0 0 1 -1.505,-1.759 c 0,-9.882 7.291,-12.27 11.36,-12.27 m 0,-2 c -4.964,0 -13.36,3.005 -13.36,14.27 a 3.519,3.519 0 0 0 3.505,3.759 3.418,3.418 0 0 0 3.395,-3.587 c 0,-3.445 1.128,-7.552 6.499,-7.552 4.817,0 6.984,3.267 6.984,5.587 0,2.364 -0.3155,4.144 -1.886,5.712 -0.7515,0.75 -1.474,1.454 -2.157,2.12 -3.933,3.833 -6.775,6.602 -6.815,10.15 -0.055,4.946 -0.0218,7.539 -0.005,8.424 a 3.4760221,3.4760221 0 1 0 6.952,-0.0248 l -0.0012,-0.075 c -0.0164,-0.8595 -0.0488,-3.384 0.0056,-8.248 0.0092,-0.8384 2.102,-2.822 3.948,-4.572 0.8091,-0.767 1.726,-1.636 2.675,-2.585 3.577,-3.577 4.296,-6.926 4.296,-11.17 0,-7.301 -5.638,-12.21 -14.03,-12.21 z"
         id="path533" />
    </g>
  </g>
</svg>
