<?xml version="1.0" encoding="UTF-8" standalone="no"?>
<!-- Created with Inkscape (http://www.inkscape.org/) -->

<svg
   width="91.754997mm"
   height="26.754999mm"
   viewBox="0 0 91.754997 26.755"
   version="1.1"
   id="svg2051"
   inkscape:version="1.2.2 (732a01da63, 2022-12-09, custom)"
   sodipodi:docname="chatprotect-logo.svg"
   inkscape:export-filename="../e4d89eb/favicon.svg"
   inkscape:export-xdpi="60.758739"
   inkscape:export-ydpi="60.758739"
   xmlns:inkscape="http://www.inkscape.org/namespaces/inkscape"
   xmlns:sodipodi="http://sodipodi.sourceforge.net/DTD/sodipodi-0.dtd"
   xmlns="http://www.w3.org/2000/svg"
   xmlns:svg="http://www.w3.org/2000/svg">
  <sodipodi:namedview
     id="namedview2053"
     pagecolor="#ffffff"
     bordercolor="#666666"
     borderopacity="1.0"
     inkscape:showpageshadow="2"
     inkscape:pageopacity="0.0"
     inkscape:pagecheckerboard="0"
     inkscape:deskcolor="#d1d1d1"
     inkscape:document-units="mm"
     showgrid="false"
     inkscape:zoom="3.1179854"
     inkscape:cx="124.43933"
     inkscape:cy="41.693588"
     inkscape:window-width="1920"
     inkscape:window-height="1043"
     inkscape:window-x="359"
     inkscape:window-y="1440"
     inkscape:window-maximized="1"
     inkscape:current-layer="layer1">
    <sodipodi:guide
       position="-144.74125,140.06676"
       orientation="0,793.70079"
       id="guide2539"
       inkscape:locked="false" />
    <sodipodi:guide
       position="65.258748,140.06673"
       orientation="1122.5197,0"
       id="guide2541"
       inkscape:locked="false" />
    <sodipodi:guide
       position="65.258748,-156.93311"
       orientation="0,-793.70079"
       id="guide2543"
       inkscape:locked="false" />
    <sodipodi:guide
       position="-144.74124,-156.93317"
       orientation="-1122.5197,0"
       id="guide2545"
       inkscape:locked="false" />
    <sodipodi:guide
       position="0,26.754998"
       orientation="0,78.444791"
       id="guide2547"
       inkscape:locked="false" />
    <sodipodi:guide
       position="20.755188,26.754998"
       orientation="59.445872,0"
       id="guide2549"
       inkscape:locked="false" />
    <sodipodi:guide
       position="20.755181,11.026612"
       orientation="0,-78.444791"
       id="guide2551"
       inkscape:locked="false" />
    <sodipodi:guide
       position="0,11.026612"
       orientation="-59.445872,0"
       id="guide2553"
       inkscape:locked="false" />
    <sodipodi:guide
       position="0,26.754998"
       orientation="0,78.444791"
       id="guide2555"
       inkscape:locked="false" />
    <sodipodi:guide
       position="26.896992,0.48909278"
       orientation="59.445872,0"
       id="guide2557"
       inkscape:locked="false" />
    <sodipodi:guide
       position="34.255075,-2.2525635"
       orientation="0,-78.444791"
       id="guide2559"
       inkscape:locked="false" />
    <sodipodi:guide
       position="45.623191,6.1035766"
       orientation="-59.445872,0"
       id="guide2561"
       inkscape:locked="false" />
  </sodipodi:namedview>
  <defs
     id="defs2048" />
  <g
     inkscape:label="Layer 1"
     inkscape:groupmode="layer"
     id="layer1"
     transform="translate(-144.74126,-113.3118)">
    <g
       id="color"
       transform="matrix(0.26458333,0,0,0.26458333,145.50119,118.71122)">
      <path
         fill="#d22f27"
         d="m 34,16.1123 v -2.5109 c 0,-1.3807 1.1193,-2.5 2.5,-2.5 v 0 c 1.3807,0 2.5,1.1193 2.5,2.5 v 2.5"
         id="path1336" />
      <path
         fill="#d0cfce"
         d="m 13.5,41.1014 v 0 c -1.3807,0 -2.5,-1.1193 -2.5,-2.5 v -8 c 0,-1.3807 1.1193,-2.5 2.5,-2.5 v 0 c 1.3807,0 2.5,1.1193 2.5,2.5 v 8 c 0,1.3807 -1.1193,2.5 -2.5,2.5 z"
         id="path1338" />
      <path
         fill="#d0cfce"
         d="m 58.5,41.1014 v 0 c 1.3807,0 2.5,-1.1193 2.5,-2.5 v -8 c 0,-1.3807 -1.1193,-2.5 -2.5,-2.5 v 0 c -1.3807,0 -2.5,1.1193 -2.5,2.5 v 8 c 0,1.3807 1.1193,2.5 2.5,2.5 z"
         id="path1340" />
      <path
         fill="#d0cfce"
         d="M 47.4505,56.1123 H 24.5495 C 19.8473,56.1123 16,52.265 16,47.5628 v -22.901 c 0,-4.7022 3.8473,-8.5495 8.5495,-8.5495 h 22.901 c 4.7022,0 8.5495,3.8473 8.5495,8.5495 v 22.901 c 0,4.7021 -3.8473,8.5495 -8.5495,8.5495 z"
         id="path1342" />
      <path
         fill="#9b9b9a"
         d="M 35.4977,56.1115 H 48.7842 C 52.7529,56.1115 56,52.2642 56,47.562 V 24.661 c 0,-4.7022 -3.2471,-8.5495 -7.2158,-8.5495 h -2.3526"
         id="path1344" />
      <circle
         cx="44.834599"
         cy="29.002701"
         fill="#ffffff"
         id="ellipse1346"
         r="2.8338001" />
      <circle
         cx="27.3342"
         cy="29.002199"
         fill="#ffffff"
         id="ellipse1348"
         r="2.8338001" />
      <path
         fill="#ffffff"
         d="m 44.5,47.5005 h -17 c -2.2,0 -4,-1.8 -4,-4 v 0 c 0,-2.2 1.8,-4 4,-4 h 17 c 2.2,0 4,1.8 4,4 v 0 c 0,2.2 -1.8,4 -4,4 z"
         id="path1350" />
    </g>
    <g
       id="line"
       transform="matrix(0.26458333,0,0,0.26458333,145.50119,118.71122)">
      <path
         fill="none"
         stroke="#000000"
         stroke-linecap="round"
         stroke-linejoin="round"
         stroke-miterlimit="2"
         stroke-width="2"
         d="M 34,16.0109 V 13.5 C 34,12.1193 35.1193,11 36.5,11 v 0 c 1.3807,0 2.5,1.1193 2.5,2.5 V 16"
         id="path1356" />
      <path
         fill="none"
         stroke="#000000"
         stroke-linecap="round"
         stroke-linejoin="round"
         stroke-miterlimit="2"
         stroke-width="2"
         d="M 47.4505,56 H 24.5495 C 19.8473,56 16,52.1527 16,47.4505 V 24.5495 C 16,19.8473 19.8473,16 24.5495,16 h 22.901 C 52.1527,16 56,19.8473 56,24.5495 v 22.901 C 56,52.1527 52.1527,56 47.4505,56 Z"
         id="path1358" />
      <circle
         cx="44.834599"
         cy="29.002199"
         fill="none"
         stroke="#000000"
         stroke-linecap="round"
         stroke-linejoin="round"
         stroke-miterlimit="2"
         stroke-width="2"
         id="ellipse1360"
         r="2.8338001" />
      <circle
         cx="27.3342"
         cy="29.001699"
         fill="none"
         stroke="#000000"
         stroke-linecap="round"
         stroke-linejoin="round"
         stroke-miterlimit="2"
         stroke-width="2"
         id="ellipse1362"
         r="2.8338001" />
      <path
         fill="none"
         stroke="#000000"
         stroke-miterlimit="2"
         stroke-width="2"
         d="m 44.5,47.5 h -17 c -2.2,0 -4,-1.8 -4,-4 v 0 c 0,-2.2 1.8,-4 4,-4 h 17 c 2.2,0 4,1.8 4,4 v 0 c 0,2.2 -1.8,4 -4,4 z"
         id="path1364" />
      <path
         fill="none"
         stroke="#000000"
         stroke-linecap="round"
         stroke-linejoin="round"
         stroke-miterlimit="2"
         stroke-width="2"
         d="m 13.5,41 v 0 C 12.1193,41 11,39.8807 11,38.5 v -8 C 11,29.1193 12.1193,28 13.5,28 v 0 c 1.3807,0 2.5,1.1193 2.5,2.5 v 8 c 0,1.3807 -1.1193,2.5 -2.5,2.5 z"
         id="path1366" />
      <path
         fill="none"
         stroke="#000000"
         stroke-linecap="round"
         stroke-linejoin="round"
         stroke-miterlimit="2"
         stroke-width="2"
         d="m 58.5,41 v 0 c 1.3807,0 2.5,-1.1193 2.5,-2.5 v -8 C 61,29.1193 59.8807,28 58.5,28 v 0 C 57.1193,28 56,29.1193 56,30.5 v 8 c 0,1.3807 1.1193,2.5 2.5,2.5 z"
         id="path1368" />
      <line
         x1="28"
         x2="28"
         y1="40"
         y2="47"
         fill="none"
         stroke="#000000"
         stroke-linecap="round"
         stroke-linejoin="round"
         stroke-miterlimit="2"
         stroke-width="2"
         id="line1370" />
      <line
         x1="33"
         x2="33"
         y1="40"
         y2="47"
         fill="none"
         stroke="#000000"
         stroke-linecap="round"
         stroke-linejoin="round"
         stroke-miterlimit="2"
         stroke-width="2"
         id="line1372" />
      <line
         x1="38"
         x2="38"
         y1="40"
         y2="47"
         fill="none"
         stroke="#000000"
         stroke-linecap="round"
         stroke-linejoin="round"
         stroke-miterlimit="2"
         stroke-width="2"
         id="line1374" />
      <line
         x1="43"
         x2="43"
         y1="40"
         y2="47"
         fill="none"
         stroke="#000000"
         stroke-linecap="round"
         stroke-linejoin="round"
         stroke-miterlimit="2"
         stroke-width="2"
         id="line1376" />
    </g>
    <g
       id="line-1"
       transform="matrix(-0.22289523,0,0,0.22289523,171.57695,115.38934)"
       style="fill:#ffffff;fill-opacity:1">
      <path
         fill="none"
         stroke="#000000"
         stroke-linecap="round"
         stroke-linejoin="round"
         stroke-miterlimit="10"
         stroke-width="2"
         d="M 54.8808,49.1283 C 57.4746,45.405 59,40.8818 59,36 59,23.2974 48.7026,13 36,13 23.2974,13 13,23.2974 13,36 c 0,12.7025 10.2974,23 23,23 3.7581,0 7.3021,-0.9071 10.4348,-2.5054 l 4.8138,2.0528 5.7283,2.4428 -1.0836,-6.1324 z"
         id="path1406"
         style="fill:#ffffff;fill-opacity:1" />
    </g>
    <text
       xml:space="preserve"
       style="font-style:normal;font-weight:normal;font-size:10.5833px;line-height:1.25;font-family:sans-serif;letter-spacing:0px;word-spacing:0px;display:none;fill:#000000;fill-opacity:1;stroke:none;stroke-width:0.264583"
       x="171.36674"
       y="131.97697"
       id="text274"><tspan
         sodipodi:role="line"
         id="tspan272"
         style="font-style:normal;font-variant:normal;font-weight:bold;font-stretch:normal;font-family:'Liberation Sans';-inkscape-font-specification:'Liberation Sans Bold';stroke-width:0.264583"
         x="171.36674"
         y="131.97697">ChatProtect</tspan></text>
    <g
       aria-label="ChatProtect"
       id="text274-3"
       style="font-size:10.5833px;line-height:1.25;letter-spacing:0px;word-spacing:0px;stroke-width:0.264583">
      <path
         d="m 175.43062,130.9004 q 1.37976,0 1.91719,-1.38492 l 1.32808,0.50126 q -0.42891,1.0542 -1.2609,1.57096 -0.82682,0.51159 -1.98437,0.51159 -1.75699,0 -2.71817,-0.99218 -0.95601,-0.99735 -0.95601,-2.78535 0,-1.79317 0.925,-2.75435 0.92501,-0.96118 2.682,-0.96118 1.28157,0 2.08772,0.51677 0.80615,0.51159 1.13171,1.50894 l -1.34358,0.36691 q -0.17053,-0.54777 -0.67179,-0.86817 -0.49609,-0.32556 -1.17305,-0.32556 -1.03353,0 -1.57096,0.64079 -0.53227,0.64079 -0.53227,1.87585 0,1.25573 0.54777,1.91719 0.55294,0.66145 1.59163,0.66145 z"
         style="font-weight:bold;font-family:'Liberation Sans';-inkscape-font-specification:'Liberation Sans Bold'"
         id="path630" />
      <path
         d="m 181.13568,127.52078 q 0.29456,-0.64079 0.73897,-0.93018 0.44442,-0.28938 1.05936,-0.28938 0.88884,0 1.36426,0.54776 0.47542,0.54777 0.47542,1.60197 v 3.54499 h -1.44694 v -3.13158 q 0,-1.47277 -0.99735,-1.47277 -0.5271,0 -0.85266,0.45475 -0.32039,0.44958 -0.32039,1.15755 v 2.99205 h -1.4521 v -7.66876 h 1.4521 v 2.09289 q 0,0.56327 -0.0413,1.10071 z"
         style="font-weight:bold;font-family:'Liberation Sans';-inkscape-font-specification:'Liberation Sans Bold'"
         id="path632" />
      <path
         d="m 187.46086,132.09929 q -0.81132,0 -1.26607,-0.43924 -0.45475,-0.44442 -0.45475,-1.2454 0,-0.86816 0.56327,-1.32292 0.56844,-0.45475 1.6433,-0.46508 l 1.20406,-0.0207 v -0.28422 q 0,-0.54777 -0.1912,-0.81132 -0.1912,-0.26872 -0.62529,-0.26872 -0.40307,0 -0.59427,0.18604 -0.18604,0.18087 -0.23255,0.60461 l -1.51411,-0.0723 q 0.13953,-0.81648 0.74414,-1.23506 0.60978,-0.42374 1.65881,-0.42374 1.05936,0 1.63297,0.52193 0.5736,0.52193 0.5736,1.48311 v 2.03604 q 0,0.47025 0.10336,0.65112 0.10852,0.1757 0.35656,0.1757 0.16537,0 0.32039,-0.031 v 0.78547 q -0.12919,0.031 -0.23254,0.0568 -0.10335,0.0258 -0.2067,0.0413 -0.10336,0.0155 -0.22221,0.0258 -0.11369,0.0103 -0.26872,0.0103 -0.54777,0 -0.81132,-0.26871 -0.25838,-0.26872 -0.31005,-0.79065 h -0.031 q -0.60978,1.1007 -1.83967,1.1007 z m 1.68981,-2.69233 -0.74414,0.0103 q -0.50643,0.0207 -0.7183,0.11368 -0.21187,0.0879 -0.32556,0.27389 -0.10852,0.18603 -0.10852,0.49609 0,0.39791 0.18087,0.59428 0.18603,0.1912 0.49092,0.1912 0.34107,0 0.62012,-0.18604 0.28422,-0.18603 0.44441,-0.51159 0.1602,-0.33073 0.1602,-0.69763 z"
         style="font-weight:bold;font-family:'Liberation Sans';-inkscape-font-specification:'Liberation Sans Bold'"
         id="path634" />
      <path
         d="m 193.48631,132.08896 q -0.64079,0 -0.98702,-0.34623 -0.34623,-0.3514 -0.34623,-1.05937 v -3.29694 h -0.70796 v -0.98185 h 0.78031 l 0.45475,-1.31258 h 0.9095 v 1.31258 h 1.05936 v 0.98185 h -1.05936 v 2.9042 q 0,0.40825 0.15503,0.60462 0.15503,0.1912 0.48059,0.1912 0.17053,0 0.48576,-0.0724 v 0.89917 q -0.53744,0.1757 -1.22473,0.1757 z"
         style="font-weight:bold;font-family:'Liberation Sans';-inkscape-font-specification:'Liberation Sans Bold'"
         id="path636" />
      <path
         d="m 201.53747,127.01952 q 0,0.70279 -0.32039,1.25573 -0.32039,0.55294 -0.91984,0.85783 -0.59428,0.29972 -1.41593,0.29972 h -1.80867 v 2.56314 h -1.52445 v -7.28118 h 3.27111 q 1.30741,0 2.01021,0.60461 0.70796,0.59944 0.70796,1.70015 z m -1.53478,0.0258 q 0,-1.14721 -1.35392,-1.14721 h -1.57613 v 2.36161 h 1.61747 q 0.63045,0 0.97151,-0.31006 0.34107,-0.31523 0.34107,-0.90434 z"
         style="font-weight:bold;font-family:'Liberation Sans';-inkscape-font-specification:'Liberation Sans Bold'"
         id="path638" />
      <path
         d="m 202.63817,131.99594 v -4.27879 q 0,-0.45992 -0.0155,-0.76481 -0.0103,-0.31006 -0.0258,-0.54777 h 1.38493 q 0.0155,0.093 0.0413,0.56844 0.0258,0.47025 0.0258,0.62528 h 0.0207 q 0.21187,-0.58911 0.37723,-0.82682 0.16537,-0.24288 0.39274,-0.35657 0.22738,-0.11885 0.56844,-0.11885 0.27905,0 0.44959,0.0775 v 1.2144 q -0.3514,-0.0775 -0.62012,-0.0775 -0.5426,0 -0.84749,0.43925 -0.29972,0.43925 -0.29972,1.30224 v 2.74401 z"
         style="font-weight:bold;font-family:'Liberation Sans';-inkscape-font-specification:'Liberation Sans Bold'"
         id="path640" />
      <path
         d="m 212.06909,129.19509 q 0,1.35908 -0.75447,2.13423 -0.75447,0.76997 -2.08772,0.76997 -1.30741,0 -2.05155,-0.77514 -0.74414,-0.77514 -0.74414,-2.12906 0,-1.34875 0.74414,-2.11873 0.74414,-0.77514 2.08256,-0.77514 1.36942,0 2.08772,0.7493 0.72346,0.74414 0.72346,2.14457 z m -1.51928,0 q 0,-0.99735 -0.32556,-1.44694 -0.32556,-0.44958 -0.94567,-0.44958 -1.32292,0 -1.32292,1.89652 0,0.93534 0.3204,1.42626 0.32556,0.48576 0.93534,0.48576 1.33841,0 1.33841,-1.91202 z"
         style="font-weight:bold;font-family:'Liberation Sans';-inkscape-font-specification:'Liberation Sans Bold'"
         id="path642" />
      <path
         d="m 214.65291,132.08896 q -0.64079,0 -0.98702,-0.34623 -0.34623,-0.3514 -0.34623,-1.05937 v -3.29694 h -0.70796 v -0.98185 h 0.78031 l 0.45475,-1.31258 h 0.9095 v 1.31258 h 1.05937 v 0.98185 h -1.05937 v 2.9042 q 0,0.40825 0.15503,0.60462 0.15503,0.1912 0.48059,0.1912 0.17053,0 0.48576,-0.0724 v 0.89917 q -0.53744,0.1757 -1.22473,0.1757 z"
         style="font-weight:bold;font-family:'Liberation Sans';-inkscape-font-specification:'Liberation Sans Bold'"
         id="path644" />
      <path
         d="m 219.03505,132.09929 q -1.2609,0 -1.93786,-0.74413 -0.67696,-0.74931 -0.67696,-2.18074 0,-1.38493 0.6873,-2.12907 0.68729,-0.74413 1.94819,-0.74413 1.20406,0 1.83968,0.80098 0.63562,0.79581 0.63562,2.33577 v 0.0413 h -3.58634 q 0,0.81648 0.29973,1.23506 0.30489,0.41341 0.86299,0.41341 0.76998,0 0.97151,-0.66662 l 1.36943,0.11885 q -0.59428,1.51928 -2.41329,1.51928 z m 0,-4.8834 q -0.51159,0 -0.79064,0.35656 -0.27389,0.35657 -0.28939,0.99735 h 2.1704 q -0.0413,-0.67695 -0.32556,-1.01285 -0.28422,-0.34106 -0.76481,-0.34106 z"
         style="font-weight:bold;font-family:'Liberation Sans';-inkscape-font-specification:'Liberation Sans Bold'"
         id="path646" />
      <path
         d="m 224.96232,132.09929 q -1.27123,0 -1.96369,-0.75447 -0.69247,-0.75964 -0.69247,-2.11356 0,-1.38492 0.69763,-2.1549 0.69763,-0.77514 1.9792,-0.77514 0.98702,0 1.63297,0.49609 0.64596,0.49609 0.81132,1.36942 l -1.46244,0.0724 q -0.062,-0.42892 -0.31005,-0.68213 -0.24805,-0.25838 -0.7028,-0.25838 -1.12138,0 -1.12138,1.87585 0,1.93269 1.14205,1.93269 0.41341,0 0.69246,-0.25838 0.27905,-0.26355 0.34623,-0.78031 l 1.45727,0.0672 q -0.0775,0.5736 -0.41341,1.02319 -0.33073,0.44958 -0.87333,0.69763 -0.5426,0.24287 -1.21956,0.24287 z"
         style="font-weight:bold;font-family:'Liberation Sans';-inkscape-font-specification:'Liberation Sans Bold'"
         id="path648" />
      <path
         d="m 229.94908,132.08896 q -0.64078,0 -0.98701,-0.34623 -0.34624,-0.3514 -0.34624,-1.05937 v -3.29694 h -0.70796 v -0.98185 h 0.78031 l 0.45475,-1.31258 h 0.9095 v 1.31258 h 1.05937 v 0.98185 h -1.05937 v 2.9042 q 0,0.40825 0.15503,0.60462 0.15503,0.1912 0.48059,0.1912 0.17053,0 0.48576,-0.0724 v 0.89917 q -0.53743,0.1757 -1.22473,0.1757 z"
         style="font-weight:bold;font-family:'Liberation Sans';-inkscape-font-specification:'Liberation Sans Bold'"
         id="path650" />
    </g>
    <g
       id="color-3"
       transform="matrix(0.14485862,0,0,0.14485862,158.40878,118.55759)">
      <path
         fill="#b1cc33"
         d="m 61.5,23.3 -8.013,-8.013 -25.71,25.71 -9.26,-9.26 -8.013,8.013 17.42,17.44 z"
         id="path386" />
    </g>
    <g
       id="line-6"
       transform="matrix(0.14485862,0,0,0.14485862,158.40878,118.55759)">
      <path
         fill="none"
         stroke="#000000"
         stroke-linecap="round"
         stroke-linejoin="round"
         stroke-miterlimit="10"
         stroke-width="2"
         d="M 10.5,39.76 27.92,57.2 61.5,23.31 l -8.013,-8.013 -25.71,25.71 -9.26,-9.26 z"
         id="path389" />
    </g>
  </g>
</svg>
