<?xml version="1.0" encoding="UTF-8" standalone="no"?>
<svg
   width="330px"
   height="25px"
   viewBox="0 0 330 25"
   version="1.1"
   id="svg2099"
   sodipodi:docname="institution-logos-black.svg"
   inkscape:version="1.2.2 (732a01da63, 2022-12-09, custom)"
   xmlns:inkscape="http://www.inkscape.org/namespaces/inkscape"
   xmlns:sodipodi="http://sodipodi.sourceforge.net/DTD/sodipodi-0.dtd"
   xmlns="http://www.w3.org/2000/svg"
   xmlns:svg="http://www.w3.org/2000/svg"
   xmlns:rdf="http://www.w3.org/1999/02/22-rdf-syntax-ns#"
   xmlns:cc="http://creativecommons.org/ns#"
   xmlns:dc="http://purl.org/dc/elements/1.1/">
  <defs
     id="defs2103">
    <clipPath
       id="b">
      <rect
         width="136"
         height="24"
         id="rect2240"
         x="0"
         y="0" />
    </clipPath>
  </defs>
  <sodipodi:namedview
     id="namedview2101"
     pagecolor="#ffffff"
     bordercolor="#666666"
     borderopacity="1.0"
     inkscape:showpageshadow="2"
     inkscape:pageopacity="0.0"
     inkscape:pagecheckerboard="0"
     inkscape:deskcolor="#d1d1d1"
     showgrid="false"
     inkscape:zoom="3.969697"
     inkscape:cx="142.95802"
     inkscape:cy="12.59542"
     inkscape:window-width="2560"
     inkscape:window-height="1365"
     inkscape:window-x="0"
     inkscape:window-y="0"
     inkscape:window-maximized="1"
     inkscape:current-layer="svg2099" />
  <title
     id="title2051">Group 8</title>
  <g
     id="eth-copy"
     transform="translate(178.125)"
     fill="#00000f"
     fill-opacity="0.941176"
     style="fill-rule:nonzero;stroke:none;stroke-width:1">
    <path
       d="M 54.975538,9.4960546 H 49.479966 L 51.409878,0 H 4.9112062 L 0,24.531474 h 18.537147 l 1.260707,-6.330703 H 8.8439771 L 9.470366,15.03542 H 20.431379 L 21.543814,9.4960546 H 10.608174 L 11.232977,6.3307031 H 28.638659 L 24.995296,24.531474 h 7.55869 L 36.195764,6.3307031 h 6.345558 L 38.899544,24.531474 h 7.616572 l 1.884717,-9.496054 h 5.493986 l -1.883132,9.496054 h 7.580099 L 64.506164,0 H 56.90545 Z M 87.406625,3.1653515 h 2.52855 L 90.561564,0 h -2.516656 z m 6.485108,0 h 2.530135 L 97.046671,0 h -2.516656 z m 23.650547,0 h 2.52855 L 120.6988,0 h -2.51824 z m 12.65701,4.6752243 c -4.41247,0 -7.50873,3.1178712 -8.49985,8.5559452 -0.15612,0.851134 -0.23573,1.714487 -0.23787,2.579761 0,3.71454 2.24628,6.023691 5.86823,6.023691 2.09478,0.0055 4.10144,-0.840845 5.55742,-2.343969 l 0.0222,-0.02374 -1.40264,-1.71562 -0.0254,-0.03007 -0.027,0.02849 c -0.96947,1.211502 -2.43793,1.917798 -3.99144,1.919786 -1.72614,0 -3.57121,-1.033487 -3.57121,-3.926619 0.006,-0.839201 0.0956,-1.675732 0.26641,-2.497462 0.25958,-1.763089 1.00393,-3.419805 2.15034,-4.786011 0.9354,-1.028302 2.26207,-1.615046 3.65367,-1.615912 1.34694,-0.060666 2.60868,0.657502 3.24216,1.8454 l 0.0206,0.03324 1.78561,-1.513038 0.0254,-0.02216 -0.019,-0.02691 c -1.045,-1.6286225 -2.88205,-2.576121 -4.81765,-2.4848012 z m 16.13864,-0.3553107 c -1.79484,-0.088567 -3.5404,0.6015918 -4.78752,1.8928802 L 143.44702,0 h -2.44529 l -4.91279,24.531474 h 2.44529 l 2.03933,-10.305593 c 0.87378,-4.3428622 4.24993,-4.5628541 4.91597,-4.5628541 0.80456,-0.081852 1.60389,0.1979082 2.18101,0.7633421 0.57712,0.565433 0.87216,1.357878 0.80504,2.162234 -0.0122,0.523065 -0.0695,1.044111 -0.17127,1.557353 l -2.07422,10.385518 h 2.44213 l 2.14558,-10.611049 c 0.11068,-0.551129 0.16803,-1.111599 0.17126,-1.67368 0.089,-1.266944 -0.36815,-2.5115498 -1.25647,-3.4209513 -0.88833,-0.9094015 -2.12337,-1.3971107 -3.39466,-1.3405286 z m -32.9663,17.0058509 -0.008,0.04115 h 2.4112 l 3.29052,-16.6180958 h -2.37076 z m -44.221466,-14.248038 -0.0071,0.04511 h 8.184286 l -10.79054,12.23804 -0.0048,0.0063 -0.405171,1.999711 h 11.621497 l 0.457501,-2.374014 h -8.687776 l 10.822256,-12.2380403 0.0048,-0.00791 0.406756,-1.9981282 H 69.602115 Z M 109.3572,7.7115877 c -1.76469,-0.046234 -3.44968,0.7329913 -4.5552,2.1065414 l 0.37425,-1.866766 0.006,-0.037193 h -2.37869 l -3.288146,16.5769459 -0.0063,0.04115 h 2.414366 l 2.01079,-10.168692 c 0.51459,-2.607458 2.5119,-4.50113 4.75263,-4.50113 0.91689,-0.021975 1.7846,0.412957 2.31447,1.160101 l 0.0238,0.03007 1.95766,-1.7599353 -0.019,-0.02374 C 112.06613,8.223316 110.73561,7.6488328 109.3572,7.7115877 Z M 94.792464,7.9141702 h 2.445295 l -0.0063,0.039567 -3.285766,16.5785288 h -2.379485 l 0.0079,-0.04115 0.31478,-1.725116 c -1.231443,1.328052 -2.986615,2.047152 -4.797822,1.965683 -1.253904,0.05606 -2.47205,-0.425322 -3.347613,-1.322898 -0.875562,-0.897576 -1.325082,-2.125789 -1.235334,-3.375275 0.0068,-0.505401 0.06447,-1.008842 0.172059,-1.502751 l 0.02775,-0.150354 2.078976,-10.4662347 h 2.412787 l -0.0079,0.039567 -2.043296,10.2066757 c -0.09718,0.506318 -0.152077,1.019813 -0.16413,1.535196 -0.06253,0.798015 0.233991,1.582417 0.809099,2.140336 0.575109,0.557919 1.369152,0.831487 2.166645,0.746464 0.65414,0 3.955764,-0.218409 4.817644,-4.505086 z"
       id="path4" />
  </g>
  <g
     id="a"
     class="a"
     clip-path="url(#b)"
     transform="translate(0.67275565,0.84506808)"
     style="fill:#0d0d1b;fill-opacity:1">
    <g
       transform="translate(28.656)"
       id="g2255"
       style="fill:#0d0d1b;fill-opacity:1">
      <path
         class="b"
         d="M 65.511,11.895 A 18.772,18.772 0 0 0 59.879,9.684 c -4,-1 -4.684,-1.789 -4.684,-3.211 0,-1.789 1.737,-3.158 3.895,-3.158 2.421,0 3.895,1.211 4.158,3.368 l 0.053,0.579 h 4.053 V 6.579 C 67.354,2.579 64.196,0 59.301,0 54.669,0 51.143,2.842 51.143,6.579 A 5.67,5.67 0 0 0 53.247,11 c 1.263,1 2.526,1.368 5.263,2 l 0.421,0.105 a 10.812,10.812 0 0 1 3.526,1.263 2.826,2.826 0 0 1 1.474,2.579 c 0,1.895 -2.263,3.684 -4.684,3.684 a 4.7,4.7 0 0 1 -3.211,-1 3.475,3.475 0 0 1 -1.526,-2.842 V 16.105 H 50.3 l 0.053,0.737 c 0.21,4.263 3.789,7.158 8.894,7.158 5.053,0 8.737,-3 8.737,-7.105 a 6.52,6.52 0 0 0 -2.473,-5 z"
         transform="translate(-50.3)"
         id="path2245"
         style="fill:#0d0d1b;fill-opacity:1" />
      <g
         transform="translate(43.105,0.368)"
         id="g2249"
         style="fill:#0d0d1b;fill-opacity:1">
        <rect
           class="b"
           width="4.053"
           height="23.158001"
           id="rect2247"
           style="fill:#0d0d1b;fill-opacity:1"
           x="0"
           y="0" />
      </g>
      <g
         transform="translate(20.632,0.368)"
         id="g2253"
         style="fill:#0d0d1b;fill-opacity:1">
        <path
           class="b"
           d="m 101.763,15.595 c 4.263,-0.684 7.158,-3.474 7.158,-7.158 A 7.681,7.681 0 0 0 103.763,1.542 C 101.5,0.7 100.079,0.7 96.974,0.7 H 89.5 v 23.158 h 4.053 V 4.068 H 97.5 c 2.526,0 3.421,0.105 4.895,0.789 a 4.123,4.123 0 0 1 2.526,3.526 4.261,4.261 0 0 1 -2.579,3.579 c -1.263,0.579 -2.421,0.684 -5.737,0.684 h -2.631 l 10.211,11.211 h 5.211 z"
           transform="translate(-89.5,-0.7)"
           id="path2251"
           style="fill:#0d0d1b;fill-opacity:1" />
      </g>
    </g>
    <g
       transform="translate(0,2.368)"
       id="g2259"
       style="fill:#0d0d1b;fill-opacity:1">
      <path
         class="b"
         d="M 18.565,10.289 H 6.947 C 4.473,10.289 3.736,9.552 1.579,7.394 L 0,5.816 1.316,4.5 2.895,6.079 c 2.052,2.053 2.368,2.368 4.052,2.368 h 11.618 z"
         transform="translate(0,-4.5)"
         id="path2257"
         style="fill:#0d0d1b;fill-opacity:1" />
    </g>
    <g
       transform="translate(9.053,11.617)"
       id="g2263"
       style="fill:#0d0d1b;fill-opacity:1">
      <rect
         class="b"
         width="13.722"
         height="1.842"
         id="rect2261"
         style="fill:#0d0d1b;fill-opacity:1"
         x="0"
         y="0" />
    </g>
    <g
       transform="translate(3.684,14.55)"
       id="g2267"
       style="fill:#0d0d1b;fill-opacity:1">
      <path
         class="b"
         d="M 25.459,31.658 23.88,30.079 C 21.827,28.026 21.512,27.711 19.775,27.711 H 12.368 C 9.894,27.711 9.157,26.974 7,24.816 L 8.316,23.5 c 2.053,2.053 2.368,2.368 4.105,2.368 h 7.407 c 2.474,0 3.211,0.737 5.368,2.895 l 1.579,1.579 z"
         transform="translate(-7,-23.5)"
         id="path2265"
         style="fill:#0d0d1b;fill-opacity:1" />
    </g>
    <g
       transform="translate(119.34,0.474)"
       id="g2271"
       style="fill:#0d0d1b;fill-opacity:1">
      <path
         class="b"
         d="m 224.968,2.9 h 3.105 a 6.714,6.714 0 0 1 4.158,1 4.041,4.041 0 0 1 1.474,3 3.878,3.878 0 0 1 -1.895,3.211 c -0.895,0.526 -1.895,0.684 -4,0.684 h -0.579 V 12.9 h 0.526 c 2.526,0 3.368,0.105 4.474,0.526 a 4.219,4.219 0 0 1 2.737,3.947 4.492,4.492 0 0 1 -2.526,3.895 9.9,9.9 0 0 1 -4.316,0.632 h -0.895 v 2.105 h 1.158 c 3.263,0 4.526,-0.263 6.158,-1.368 a 6.249,6.249 0 0 0 2.684,-5.263 5.922,5.922 0 0 0 -3.842,-5.684 5.474,5.474 0 0 0 2.579,-4.632 c 0,-3.789 -2.947,-6.158 -7.579,-6.158 H 222.6 v 23.158 h 2.316 V 2.9 Z"
         transform="translate(-222.6,-0.9)"
         id="path2269"
         style="fill:#0d0d1b;fill-opacity:1" />
    </g>
    <g
       transform="translate(80.708,0.368)"
       id="g2279"
       style="fill:#0d0d1b;fill-opacity:1">
      <g
         transform="translate(3.593,21.105)"
         id="g2275"
         style="fill:#0d0d1b;fill-opacity:1">
        <rect
           class="b"
           width="8.3540001"
           height="2.105"
           id="rect2273"
           style="fill:#0d0d1b;fill-opacity:1"
           x="0"
           y="0" />
      </g>
      <rect
         class="b"
         width="2.316"
         height="23.158001"
         id="rect2277"
         style="fill:#0d0d1b;fill-opacity:1"
         x="0"
         y="0" />
    </g>
    <g
       transform="translate(94.287,0.368)"
       id="g2287"
       style="fill:#0d0d1b;fill-opacity:1">
      <path
         class="b"
         d="m 189.79,11.911 h 2.474 L 187.421,0.7 h -2.526 L 175,23.911 h 2.368 L 186.21,3.385 Z"
         transform="translate(-175,-0.7)"
         id="path2281"
         style="fill:#0d0d1b;fill-opacity:1" />
      <g
         transform="translate(8.263,13.263)"
         id="g2285"
         style="fill:#0d0d1b;fill-opacity:1">
        <path
           class="b"
           d="m 191.595,25.9 -0.895,2.105 h 8.263 l 3.368,7.842 h 2.526 L 200.595,25.9 Z"
           transform="translate(-190.7,-25.9)"
           id="path2283"
           style="fill:#0d0d1b;fill-opacity:1" />
      </g>
    </g>
  </g>
  <metadata
     id="metadata8018">
    <rdf:RDF>
      <cc:Work
         rdf:about="">
        <dc:title>Group 8</dc:title>
      </cc:Work>
    </rdf:RDF>
  </metadata>
</svg>
