<svg xmlns="http://www.w3.org/2000/svg" xmlns:xlink="http://www.w3.org/1999/xlink" viewBox="0 0 136 24"><defs><style>.a{clip-path:url(#b);}.b{fill:#0079af;}</style><clipPath id="b"><rect width="136" height="24"/></clipPath></defs><g id="a" class="a"><g transform="translate(28.656 0)"><path class="b" d="M65.511,11.895a18.772,18.772,0,0,0-5.632-2.211c-4-1-4.684-1.789-4.684-3.211,0-1.789,1.737-3.158,3.895-3.158,2.421,0,3.895,1.211,4.158,3.368l.053.579h4.053V6.579c0-4-3.158-6.579-8.053-6.579-4.632,0-8.158,2.842-8.158,6.579A5.67,5.67,0,0,0,53.247,11c1.263,1,2.526,1.368,5.263,2l.421.105a10.812,10.812,0,0,1,3.526,1.263,2.826,2.826,0,0,1,1.474,2.579c0,1.895-2.263,3.684-4.684,3.684a4.7,4.7,0,0,1-3.211-1,3.475,3.475,0,0,1-1.526-2.842v-.684H50.3l.053.737C50.563,21.105,54.142,24,59.247,24c5.053,0,8.737-3,8.737-7.105A6.52,6.52,0,0,0,65.511,11.895Z" transform="translate(-50.3 0)"/><g transform="translate(43.105 0.368)"><rect class="b" width="4.053" height="23.158"/></g><g transform="translate(20.632 0.368)"><path class="b" d="M101.763,15.595c4.263-.684,7.158-3.474,7.158-7.158a7.681,7.681,0,0,0-5.158-6.895C101.5.7,100.079.7,96.974.7H89.5V23.858h4.053V4.068H97.5c2.526,0,3.421.105,4.895.789a4.123,4.123,0,0,1,2.526,3.526,4.261,4.261,0,0,1-2.579,3.579c-1.263.579-2.421.684-5.737.684H93.974l10.211,11.211h5.211Z" transform="translate(-89.5 -0.7)"/></g></g><g transform="translate(0 2.368)"><path class="b" d="M18.565,10.289H6.947c-2.474,0-3.211-.737-5.368-2.895L0,5.816,1.316,4.5,2.895,6.079C4.947,8.132,5.263,8.447,6.947,8.447H18.565Z" transform="translate(0 -4.5)"/></g><g transform="translate(9.053 11.617)"><rect class="b" width="13.722" height="1.842"/></g><g transform="translate(3.684 14.55)"><path class="b" d="M25.459,31.658,23.88,30.079c-2.053-2.053-2.368-2.368-4.105-2.368H12.368c-2.474,0-3.211-.737-5.368-2.895L8.316,23.5c2.053,2.053,2.368,2.368,4.105,2.368h7.407c2.474,0,3.211.737,5.368,2.895l1.579,1.579Z" transform="translate(-7 -23.5)"/></g><g transform="translate(119.34 0.474)"><path class="b" d="M224.968,2.9h3.105a6.714,6.714,0,0,1,4.158,1,4.041,4.041,0,0,1,1.474,3,3.878,3.878,0,0,1-1.895,3.211c-.895.526-1.895.684-4,.684h-.579V12.9h.526c2.526,0,3.368.105,4.474.526a4.219,4.219,0,0,1,2.737,3.947,4.492,4.492,0,0,1-2.526,3.895,9.9,9.9,0,0,1-4.316.632h-.895v2.105h1.158c3.263,0,4.526-.263,6.158-1.368a6.249,6.249,0,0,0,2.684-5.263,5.922,5.922,0,0,0-3.842-5.684,5.474,5.474,0,0,0,2.579-4.632c0-3.789-2.947-6.158-7.579-6.158H222.6V24.058h2.316V2.9Z" transform="translate(-222.6 -0.9)"/></g><g transform="translate(80.708 0.368)"><g transform="translate(3.593 21.105)"><rect class="b" width="8.354" height="2.105" transform="translate(0)"/></g><rect class="b" width="2.316" height="23.158"/></g><g transform="translate(94.287 0.368)"><path class="b" d="M189.79,11.911h2.474L187.421.7h-2.526L175,23.911h2.368l8.842-20.526Z" transform="translate(-175 -0.7)"/><g transform="translate(8.263 13.263)"><path class="b" d="M191.595,25.9l-.895,2.105h8.263l3.368,7.842h2.526L200.595,25.9Z" transform="translate(-190.7 -25.9)"/></g></g></g></svg>